<svg xmlns="http://www.w3.org/2000/svg" width="23.8" height="21.431" viewBox="0 0 23.8 21.431">
  <defs>
    <style>
      .cls-1 {
        fill: #f29436;
        stroke: #f29436;
        stroke-linejoin: round;
        stroke-width: 2px;
      }
    </style>
  </defs>
  <path id="合体_3" data-name="合体 3" class="cls-1" d="M15.26,19.743H8.3L4.3,20.431a.662.662,0,0,1-.571-.688l-.807-8.412L6.9,15.84c.4.6,1.13.471,1.4-.245l3.482-9.158L15.26,15.6c.271.715,1.008.842,1.411.244l3.981-4.509-.807,8.412a.662.662,0,0,1-.57.688ZM20.7,7a1,1,0,1,1,1,1A1,1,0,0,1,20.7,7ZM.9,7a1,1,0,1,1,1,1A1,1,0,0,1,.9,7Zm9.8-5a1,1,0,1,1,1,1A1,1,0,0,1,10.7,2Z" transform="translate(0.1 0)"/>
</svg>
