<svg xmlns="http://www.w3.org/2000/svg" width="11.77" height="28.1" viewBox="0 0 13.77 26.1">
  <defs>
    <style>
      .cls-1 {
        fill: #ff7600;
      }
    </style>
  </defs>
  <path id="合体_4" data-name="合体 4" class="cls-1" d="M6.9,25.029H9.245a1.171,1.171,0,0,1-2.343,0Zm-.835-.823a.632.632,0,1,1,0-1.264h4.014a.632.632,0,1,1,0,1.264Zm0-2.04a.632.632,0,1,1,0-1.264h4.014a.632.632,0,0,1,0,1.264Zm.328-2.193a1.511,1.511,0,0,1-.646-.137,1.332,1.332,0,0,1-.542-.467,1.5,1.5,0,0,1-.2-.421,2.107,2.107,0,0,1-.079-.595,2.583,2.583,0,0,0-.078-.691,1.841,1.841,0,0,0-.226-.5c-.073-.117-.166-.246-.279-.393-.151-.2-.341-.426-.561-.7a5.477,5.477,0,1,1,8.572,0c-.33.414-.589.723-.76.975a1.933,1.933,0,0,0-.321.679,2.705,2.705,0,0,0-.062.63,2.027,2.027,0,0,1-.1.668,1.426,1.426,0,0,1-.382.592,1.322,1.322,0,0,1-.4.254,1.536,1.536,0,0,1-.574.106ZM5.306,9.891a3.914,3.914,0,0,0-.3,5.206c.314.4.586.715.827,1.065a3.528,3.528,0,0,1,.551,1.2,4.206,4.206,0,0,1,.106.994c0,.023,0,.041,0,.059H9.653c0-.017,0-.037,0-.059a4.135,4.135,0,0,1,.135-1.106,3.456,3.456,0,0,1,.405-.908c.113-.181.238-.35.368-.521.176-.227.365-.457.577-.721A3.916,3.916,0,0,0,5.306,9.891ZM12.417,6.5a.628.628,0,0,1-.23-.858L13.7,3.017a.628.628,0,1,1,1.087.628L13.275,6.268a.628.628,0,0,1-.858.23ZM2.7,6.268,1.187,3.645a.628.628,0,0,1,1.088-.628L3.789,5.639A.628.628,0,0,1,2.7,6.268ZM7.44,4.156V.73A.628.628,0,1,1,8.7.73V4.156a.628.628,0,1,1-1.255,0Z" transform="translate(-1.103 -0.1)"/>
</svg>
