<svg xmlns="http://www.w3.org/2000/svg" width="93.028" height="24.866" viewBox="0 0 93.028 24.866">
  <defs>
    <style>
      .cls-1 {
        fill: #fff;
      }
    </style>
  </defs>
  <g id="logo2" transform="translate(0 0)">
    <path id="パス_87" data-name="パス 87" class="cls-1" d="M28.53,34.806V9.94H41.1V12.7H33.558v8.289h5.028v2.763H33.558V34.806Z" transform="translate(-28.53 -9.94)"/>
    <path id="パス_88" data-name="パス 88" class="cls-1" d="M34.9,34.806V15.466a5.526,5.526,0,0,1,1.492-3.9,4.559,4.559,0,0,1,3.536-1.63h5.056a4.7,4.7,0,0,1,3.536,1.63,5.526,5.526,0,0,1,1.464,3.9v19.34h-5V23.754H39.929V34.806Zm5.028-13.814h5.056V15.466a2.763,2.763,0,0,0-.774-1.962,2.348,2.348,0,0,0-3.536,0,2.763,2.763,0,0,0-.746,1.962Z" transform="translate(-17.301 -9.94)"/>
    <path id="パス_89" data-name="パス 89" class="cls-1" d="M42.18,34.806V9.94h1.133L57.127,23.754V9.94h2.514V34.806h-1.16L44.667,20.991V34.806Z" transform="translate(-4.467 -9.94)"/>
    <path id="パス_90" data-name="パス 90" class="cls-1" d="M62.951,15.466H60.41c-.221-1.851-.995-2.763-2.376-2.763a2.763,2.763,0,0,0-1.989.718,2.763,2.763,0,0,0-.663,2.072,2.984,2.984,0,0,0,.746,1.934L61.46,23.92a6.051,6.051,0,0,1,1.492,3.923v1.381a5.526,5.526,0,0,1-1.492,3.9,4.614,4.614,0,0,1-3.536,1.63H55.409a4.807,4.807,0,0,1-3.757-1.381,5.968,5.968,0,0,1-1.271-4.144h2.514v.47a1.962,1.962,0,0,0,.8,1.685,2.763,2.763,0,0,0,1.741.608,2.431,2.431,0,0,0,1.934-.718,3.2,3.2,0,0,0,.58-2.072,3.011,3.011,0,0,0-.746-1.962l-5.36-6.493a6.051,6.051,0,0,1-1.464-3.9V15.466a5.526,5.526,0,0,1,1.464-3.9,4.7,4.7,0,0,1,3.564-1.63h2.514C61.073,9.94,62.73,11.763,62.951,15.466Z" transform="translate(9.96 -9.94)"/>
    <path id="パス_91" data-name="パス 91" class="cls-1" d="M56.741,34.806V15.466a5.526,5.526,0,0,1,1.492-3.9,4.5,4.5,0,0,1,3.536-1.63h5.056a4.7,4.7,0,0,1,3.536,1.63,5.526,5.526,0,0,1,1.464,3.9v19.34h-5V23.755H61.769V34.806Zm5.028-13.814h5.056V15.466a2.763,2.763,0,0,0-.746-1.962,2.459,2.459,0,0,0-1.8-.8,2.348,2.348,0,0,0-1.768.8,2.763,2.763,0,0,0-.746,1.962Z" transform="translate(21.2 -9.94)"/>
  </g>
</svg>
